<svg width="15" height="75" viewBox="0 0 15 75" fill="none" xmlns="http://www.w3.org/2000/svg">
<path d="M11.224 7.694L11.224 2.654L8.236 2.654L8.236 7.55L5.86 7.55L5.86 2.654L1 2.654L1 0.169999L13.6 0.17L13.6 7.694L11.224 7.694ZM2.116 17.064C1.204 16.14 0.747999 15.012 0.747999 13.68C0.747999 12.348 1.204 11.22 2.116 10.296C3.04 9.38398 4.168 8.92798 5.5 8.92798C6.832 8.92798 7.954 9.38398 8.866 10.296C9.79 11.22 10.252 12.348 10.252 13.68C10.252 15.012 9.79 16.14 8.866 17.064C7.954 17.988 6.832 18.45 5.5 18.45C4.168 18.45 3.04 17.988 2.116 17.064ZM3.718 11.934C3.25 12.402 3.016 12.984 3.016 13.68C3.016 14.376 3.25 14.958 3.718 15.426C4.186 15.894 4.78 16.128 5.5 16.128C6.22 16.128 6.814 15.894 7.282 15.426C7.75 14.958 7.984 14.376 7.984 13.68C7.984 12.984 7.75 12.402 7.282 11.934C6.814 11.478 6.22 11.25 5.5 11.25C4.78 11.25 4.186 11.478 3.718 11.934ZM0.999999 20.0835L14.14 20.0835L14.14 22.4055L0.999999 22.4055L0.999999 20.0835ZM0.999999 24.5307L14.14 24.5307L14.14 26.8527L0.999999 26.8527L0.999999 24.5307ZM2.116 36.646C1.204 35.722 0.747998 34.594 0.747998 33.262C0.747999 31.93 1.204 30.802 2.116 29.878C3.04 28.966 4.168 28.51 5.5 28.51C6.832 28.51 7.954 28.966 8.866 29.878C9.79 30.802 10.252 31.93 10.252 33.262C10.252 34.594 9.79 35.722 8.866 36.646C7.954 37.57 6.832 38.032 5.5 38.032C4.168 38.032 3.04 37.57 2.116 36.646ZM3.718 31.516C3.25 31.984 3.016 32.566 3.016 33.262C3.016 33.958 3.25 34.54 3.718 35.008C4.186 35.476 4.78 35.71 5.5 35.71C6.22 35.71 6.814 35.476 7.282 35.008C7.75 34.54 7.984 33.958 7.984 33.262C7.984 32.566 7.75 31.984 7.282 31.516C6.814 31.06 6.22 30.832 5.5 30.832C4.78 30.832 4.186 31.06 3.718 31.516ZM10 49.448L10 51.914L0.999998 49.052L0.999998 46.838L6.454 45.182L0.999998 43.526L0.999998 41.312L10 38.45L10 40.916L4.474 42.446L10 44.084L10 46.28L4.456 47.918L10 49.448ZM10 63.6055L10 65.9275L0.999997 65.9275L0.999997 63.6055L2.008 63.6055C1.168 63.0415 0.747997 62.1475 0.747997 60.9235C0.747997 59.9395 1.078 59.1235 1.738 58.4755C2.398 57.8395 3.31 57.5215 4.474 57.5215L10 57.5215L10 59.8435L4.762 59.8435C4.162 59.8435 3.7 60.0055 3.376 60.3295C3.064 60.6535 2.908 61.0855 2.908 61.6255C2.908 62.2255 3.094 62.7055 3.466 63.0655C3.838 63.4255 4.396 63.6055 5.14 63.6055L10 63.6055ZM7.444 70.1259C7.204 70.1259 7.006 70.2819 6.85 70.5939C6.706 70.9179 6.574 71.3079 6.454 71.7639C6.346 72.2199 6.202 72.6759 6.022 73.1319C5.854 73.5879 5.566 73.9719 5.158 74.2839C4.75 74.6079 4.24 74.7699 3.628 74.7699C2.704 74.7699 1.99 74.4219 1.486 73.7259C0.993997 73.0419 0.747997 72.1839 0.747997 71.1519C0.747997 69.3039 1.462 68.0439 2.89 67.3719L4.024 69.3879C3.244 69.6519 2.854 70.2399 2.854 71.1519C2.854 71.9799 3.112 72.3939 3.628 72.3939C3.868 72.3939 4.06 72.2319 4.204 71.9079C4.36 71.5959 4.498 71.2119 4.618 70.7559C4.738 70.2999 4.888 69.8439 5.068 69.3879C5.248 68.9319 5.53 68.5419 5.914 68.2179C6.31 67.9059 6.802 67.7499 7.39 67.7499C8.278 67.7499 8.974 68.0739 9.478 68.7219C9.994 69.3819 10.252 70.1979 10.252 71.1699C10.252 71.9019 10.084 72.5679 9.748 73.1679C9.424 73.7679 8.956 74.2419 8.344 74.5899L7.264 72.6099C7.876 72.3219 8.182 71.8419 8.182 71.1699C8.182 70.8699 8.116 70.6179 7.984 70.4139C7.852 70.2219 7.672 70.1259 7.444 70.1259Z" fill="white"/>
</svg>
